<svg width="52" height="73" viewBox="0 0 52 73" fill="none" xmlns="http://www.w3.org/2000/svg">
<path d="M12.932 42.7675V60H4.7275V15.897H18.178C21.1873 15.897 23.7595 16.2122 25.8945 16.8425C28.0498 17.4525 29.8087 18.3167 31.171 19.435C32.5537 20.5533 33.5602 21.8953 34.1905 23.461C34.8412 25.0063 35.1665 26.7143 35.1665 28.585C35.1665 30.0693 34.9428 31.4723 34.4955 32.794C34.0685 34.1157 33.4382 35.3153 32.6045 36.393C31.7912 37.4707 30.7745 38.4162 29.5545 39.2295C28.3548 40.0428 26.9823 40.6935 25.437 41.1815C26.474 41.7712 27.3687 42.615 28.121 43.713L39.162 60H31.781C31.0693 60 30.4593 59.8577 29.951 59.573C29.463 59.2883 29.0462 58.8817 28.7005 58.353L19.4285 44.2315C19.0828 43.7028 18.6965 43.3267 18.2695 43.103C17.8628 42.8793 17.2528 42.7675 16.4395 42.7675H12.932ZM12.932 36.881H18.056C19.6013 36.881 20.9433 36.6878 22.082 36.3015C23.241 35.9152 24.1865 35.3865 24.9185 34.7155C25.6708 34.0242 26.23 33.2108 26.596 32.2755C26.962 31.3402 27.145 30.3133 27.145 29.195C27.145 26.9583 26.4028 25.2402 24.9185 24.0405C23.4545 22.8408 21.2077 22.241 18.178 22.241H12.932V36.881Z" fill="#0C0C0C"/>
<circle cx="46" cy="36.5" r="6" fill="#0C0C0C"/>
</svg>
